<svg xmlns="http://www.w3.org/2000/svg" xmlns:xlink="http://www.w3.org/1999/xlink" width="548" height="678" viewBox="0 0 548 678">
  <defs>
    <linearGradient id="linear-gradient" x1="0.5" x2="0.5" y2="1" gradientUnits="objectBoundingBox">
      <stop offset="0" stop-color="#fff" stop-opacity="0.29"/>
      <stop offset="1" stop-color="#fff" stop-opacity="0"/>
    </linearGradient>
    <linearGradient id="linear-gradient-2" x1="0.5" x2="0.5" y2="1" gradientUnits="objectBoundingBox">
      <stop offset="0" stop-color="#fff" stop-opacity="0.745"/>
      <stop offset="0.575" stop-color="#fff" stop-opacity="0.494"/>
      <stop offset="1" stop-color="#fff" stop-opacity="0.306"/>
    </linearGradient>
    <filter id="Skinningrove." x="317" y="15" width="211" height="57" filterUnits="userSpaceOnUse">
      <feOffset dy="3" input="SourceAlpha"/>
      <feGaussianBlur stdDeviation="3" result="blur"/>
      <feFlood flood-opacity="0.161"/>
      <feComposite operator="in" in2="blur"/>
      <feComposite in="SourceGraphic"/>
    </filter>
    <filter id="population:_460." x="356" y="53" width="171" height="42" filterUnits="userSpaceOnUse">
      <feOffset dy="3" input="SourceAlpha"/>
      <feGaussianBlur stdDeviation="3" result="blur-2"/>
      <feFlood flood-opacity="0.161"/>
      <feComposite operator="in" in2="blur-2"/>
      <feComposite in="SourceGraphic"/>
    </filter>
    <filter id="Ellipse_1" x="67" y="108" width="34" height="34" filterUnits="userSpaceOnUse">
      <feOffset dy="3" input="SourceAlpha"/>
      <feGaussianBlur stdDeviation="3" result="blur-3"/>
      <feFlood flood-opacity="0.161"/>
      <feComposite operator="in" in2="blur-3"/>
      <feComposite in="SourceGraphic"/>
    </filter>
    <filter id="_1" x="146" y="230" width="41" height="68" filterUnits="userSpaceOnUse">
      <feOffset dy="3" input="SourceAlpha"/>
      <feGaussianBlur stdDeviation="3" result="blur-4"/>
      <feFlood flood-opacity="0.161"/>
      <feComposite operator="in" in2="blur-4"/>
      <feComposite in="SourceGraphic"/>
    </filter>
    <filter id="_2" x="96" y="338" width="41" height="68" filterUnits="userSpaceOnUse">
      <feOffset dy="3" input="SourceAlpha"/>
      <feGaussianBlur stdDeviation="3" result="blur-5"/>
      <feFlood flood-opacity="0.161"/>
      <feComposite operator="in" in2="blur-5"/>
      <feComposite in="SourceGraphic"/>
    </filter>
    <filter id="_3" x="144" y="419" width="41" height="68" filterUnits="userSpaceOnUse">
      <feOffset dy="3" input="SourceAlpha"/>
      <feGaussianBlur stdDeviation="3" result="blur-6"/>
      <feFlood flood-opacity="0.161"/>
      <feComposite operator="in" in2="blur-6"/>
      <feComposite in="SourceGraphic"/>
    </filter>
    <filter id="_4" x="206" y="322" width="41" height="68" filterUnits="userSpaceOnUse">
      <feOffset dy="3" input="SourceAlpha"/>
      <feGaussianBlur stdDeviation="3" result="blur-7"/>
      <feFlood flood-opacity="0.161"/>
      <feComposite operator="in" in2="blur-7"/>
      <feComposite in="SourceGraphic"/>
    </filter>
    <filter id="_5" x="132" y="528" width="41" height="68" filterUnits="userSpaceOnUse">
      <feOffset dy="3" input="SourceAlpha"/>
      <feGaussianBlur stdDeviation="3" result="blur-8"/>
      <feFlood flood-opacity="0.161"/>
      <feComposite operator="in" in2="blur-8"/>
      <feComposite in="SourceGraphic"/>
    </filter>
    <filter id="_7" x="211" y="417" width="41" height="68" filterUnits="userSpaceOnUse">
      <feOffset dy="3" input="SourceAlpha"/>
      <feGaussianBlur stdDeviation="3" result="blur-9"/>
      <feFlood flood-opacity="0.161"/>
      <feComposite operator="in" in2="blur-9"/>
      <feComposite in="SourceGraphic"/>
    </filter>
    <filter id="_9" x="371" y="388" width="41" height="68" filterUnits="userSpaceOnUse">
      <feOffset dy="3" input="SourceAlpha"/>
      <feGaussianBlur stdDeviation="3" result="blur-10"/>
      <feFlood flood-opacity="0.161"/>
      <feComposite operator="in" in2="blur-10"/>
      <feComposite in="SourceGraphic"/>
    </filter>
    <filter id="_10" x="268" y="551" width="61" height="68" filterUnits="userSpaceOnUse">
      <feOffset dy="3" input="SourceAlpha"/>
      <feGaussianBlur stdDeviation="3" result="blur-11"/>
      <feFlood flood-opacity="0.161"/>
      <feComposite operator="in" in2="blur-11"/>
      <feComposite in="SourceGraphic"/>
    </filter>
    <filter id="_11" x="82" y="455" width="61" height="68" filterUnits="userSpaceOnUse">
      <feOffset dy="3" input="SourceAlpha"/>
      <feGaussianBlur stdDeviation="3" result="blur-12"/>
      <feFlood flood-opacity="0.161"/>
      <feComposite operator="in" in2="blur-12"/>
      <feComposite in="SourceGraphic"/>
    </filter>
    <filter id="_8" x="270" y="357" width="41" height="68" filterUnits="userSpaceOnUse">
      <feOffset dy="3" input="SourceAlpha"/>
      <feGaussianBlur stdDeviation="3" result="blur-13"/>
      <feFlood flood-opacity="0.161"/>
      <feComposite operator="in" in2="blur-13"/>
      <feComposite in="SourceGraphic"/>
    </filter>
    <filter id="_12" x="413" y="544" width="61" height="68" filterUnits="userSpaceOnUse">
      <feOffset dy="3" input="SourceAlpha"/>
      <feGaussianBlur stdDeviation="3" result="blur-14"/>
      <feFlood flood-opacity="0.161"/>
      <feComposite operator="in" in2="blur-14"/>
      <feComposite in="SourceGraphic"/>
    </filter>
    <clipPath id="clip-Artboard_1">
      <rect width="548" height="678"/>
    </clipPath>
  </defs>
  <g id="Artboard_1" data-name="Artboard – 1" clip-path="url(#clip-Artboard_1)">
    <rect width="548" height="678" fill="#484848"/>
    <g id="Group_1" data-name="Group 1" transform="translate(-70.772 1)">
      <g id="Path_2" data-name="Path 2" transform="translate(63 326)" fill="none">
        <path d="M0-242.75s12.845,9.986,25.306,13.314,24.541,0,24.541,0h8.56l20.132-47.58,32.88-20.217,27.747-6.375,3.48,10.278L97.777-277.016l-15.29,12.852A38.883,38.883,0,0,1,85.3-248.47c-.306,5.474-2.027,10.923-2.809,15.046-.308,1.607-1.021,21.888,0,24.741.36,1.007,5.22,5.935,6.248,11.314,1.728,9.048,3.685,13.416,9.043,43.635,0,0-1.727,15.686,5.67,22.644,11.575,10.888,25.341,27.26,25.341,27.26A111.945,111.945,0,0,0,156.11-79.407C173.7-68.13,199.131-58.723,199.131-58.723l12.521,7.435s-.961,4.475,3.08,13.687,1.135,12.853,13.085,23.162,14.417,9.331,34.717,18.072,46.482,16.895,46.482,16.895,16.855,2.715,46.319,0S426.87,9.669,426.87,9.669,448.289,3.5,466.947,0A291.923,291.923,0,0,1,501.5-4.321,276.785,276.785,0,0,0,532.447,0,230.071,230.071,0,0,0,562,0V362H0Z" stroke="none"/>
        <path d="M 139.1659851074219 -303.6074829101562 L 111.4193420410156 -297.23291015625 L 78.53982543945312 -277.0155639648438 L 58.4075927734375 -229.4353332519531 L 49.84722900390625 -229.4353332519531 C 49.84722900390625 -229.4353332519531 44.47906494140625 -227.9559631347656 37.20733642578125 -227.9559631347656 C 33.57183837890625 -227.9559631347656 29.46002197265625 -228.3258666992188 25.30633544921875 -229.4353332519531 C 12.844482421875 -232.763916015625 0 -242.7496643066406 0 -242.7496643066406 L 0 362 L 562 362 L 562 7.62939453125e-06 C 562 7.62939453125e-06 555.5879516601562 0.4800834655761719 546.8311767578125 0.4800834655761719 C 542.4531860351562 0.4800834655761719 537.488525390625 0.3600425720214844 532.447265625 7.62939453125e-06 C 517.3225708007812 -1.080242156982422 501.5013427734375 -4.320823669433594 501.5013427734375 -4.320823669433594 C 501.5013427734375 -4.320823669433594 485.6043395996094 -3.497325897216797 466.9465942382812 7.62939453125e-06 C 448.288818359375 3.497341156005859 426.8701782226562 9.668590545654297 426.8701782226562 9.668590545654297 C 426.8701782226562 9.668590545654297 384.7987670898438 17.81350708007812 355.3353271484375 20.52842330932617 C 345.5129699707031 21.43353652954102 337.0943603515625 21.73509216308594 330.2318420410156 21.73509216308594 C 316.5093078613281 21.73509216308594 309.0164184570312 20.52842330932617 309.0164184570312 20.52842330932617 C 309.0164184570312 20.52842330932617 282.8338317871094 12.37542343139648 262.5340881347656 3.633674621582031 C 242.2343444824219 -5.108158111572266 239.7679138183594 -4.130241394042969 227.8175048828125 -14.43874359130859 C 215.8670959472656 -24.74732208251953 218.7737426757812 -28.38816070556641 214.732421875 -37.60041046142578 C 210.6910705566406 -46.81257629394531 211.6522521972656 -51.28765869140625 211.6522521972656 -51.28765869140625 L 199.1307373046875 -58.72282409667969 C 199.1307373046875 -58.72282409667969 173.6955871582031 -68.13007354736328 156.1099853515625 -79.406494140625 C 138.5244140625 -90.68299865722656 128.7884216308594 -103.8286590576172 128.7884216308594 -103.8286590576172 C 128.7884216308594 -103.8286590576172 115.0228271484375 -120.2009124755859 103.4474182128906 -131.0890808105469 C 96.05075073242188 -138.0465698242188 97.77725219726562 -153.7328186035156 97.77725219726562 -153.7328186035156 C 92.42001342773438 -183.9515686035156 90.46282958984375 -188.3199005126953 88.7344970703125 -197.3679046630859 C 87.70709228515625 -202.7472534179688 82.84716796875 -207.6748352050781 82.48675537109375 -208.6819763183594 C 81.4658203125 -211.5350646972656 82.17898559570312 -231.8163146972656 82.48675537109375 -233.4234008789062 C 83.26849365234375 -237.5471496582031 84.989501953125 -242.9956665039062 85.29541015625 -248.4698181152344 C 85.75323486328125 -256.6648254394531 82.48675537109375 -264.1634826660156 82.48675537109375 -264.1634826660156 L 97.77725219726562 -277.0155639648438 L 142.6459045410156 -293.329833984375 L 139.1659851074219 -303.6074829101562 M 140.4804992675781 -305.9615783691406 L 141.0603332519531 -304.2489013671875 L 144.5402526855469 -293.9712524414062 L 145.1675720214844 -292.1185607910156 L 143.329345703125 -291.4502563476562 L 98.793212890625 -275.2568969726562 L 84.86947631835938 -263.5536193847656 C 85.82708740234375 -260.9041748046875 87.65670776367188 -254.8806457519531 87.29232788085938 -248.3582458496094 C 87.07015991210938 -244.3828125 86.15475463867188 -240.5051574707031 85.34716796875 -237.083984375 C 85.0057373046875 -235.6377258300781 84.68328857421875 -234.2716369628906 84.45242309570312 -233.054443359375 C 84.34185791015625 -232.3926086425781 84.08160400390625 -227.4783020019531 83.98715209960938 -221.417236328125 C 83.86312866210938 -213.4623413085938 84.14453125 -210.1944885253906 84.34677124023438 -209.4329833984375 C 84.4853515625 -209.2155456542969 84.8616943359375 -208.7205200195312 85.169677734375 -208.3153381347656 C 86.80801391601562 -206.1602478027344 89.85751342773438 -202.1488342285156 90.69900512695312 -197.7430725097656 C 91.25332641601562 -194.8412475585938 91.82598876953125 -192.4514007568359 92.55108642578125 -189.4256591796875 C 94.05892944335938 -183.1331634521484 96.12408447265625 -174.5151519775391 99.74658203125 -154.0819091796875 L 99.79666137695312 -153.7993316650391 L 99.7652587890625 -153.5139923095703 C 99.76132202148438 -153.4776611328125 99.36050415039062 -149.6849975585938 99.83590698242188 -145.1493225097656 C 100.2559204101562 -141.1424102783203 101.4610900878906 -135.7032470703125 104.8177490234375 -132.5459136962891 C 116.3450012207031 -121.7029876708984 130.1808471679688 -105.2804107666016 130.3192443847656 -105.1157379150391 L 130.3589172363281 -105.0685729980469 L 130.3955688476562 -105.0189971923828 C 130.4189147949219 -104.9875793457031 132.8408203125 -101.7421569824219 137.3420715332031 -97.18632507324219 C 141.486328125 -92.9918212890625 148.2938232421875 -86.79440307617188 157.1895751953125 -81.09007263183594 C 162.1394958496094 -77.91598510742188 170.9814147949219 -72.83924865722656 184.9938354492188 -66.67832183837891 C 193.4031677246094 -62.98099517822266 199.7613220214844 -60.62199401855469 199.8245849609375 -60.59857177734375 L 199.9953308105469 -60.53549194335938 L 200.1519165039062 -60.44248962402344 L 212.6734313964844 -53.00732421875 L 213.9498291015625 -52.24940490722656 L 213.6111450195312 -50.8817138671875 C 213.5897216796875 -50.74480438232422 213.4501037597656 -49.7261962890625 213.7008361816406 -47.82940673828125 C 213.9509887695312 -45.93657684326172 214.6508483886719 -42.76482391357422 216.5639038085938 -38.40390777587891 C 217.81884765625 -35.54332733154297 218.4404296875 -33.18141174316406 218.9888305664062 -31.09748840332031 C 219.6127624511719 -28.72666168212891 220.1515808105469 -26.6790771484375 221.4876708984375 -24.40357208251953 C 222.9999084472656 -21.82782745361328 225.4264221191406 -19.14265441894531 229.1238403320312 -15.95315551757812 C 233.3840026855469 -12.27832794189453 236.4029235839844 -10.06540679931641 239.5440063476562 -8.315071105957031 C 242.6380920410156 -6.590827941894531 245.7944946289062 -5.338493347167969 250.5723266601562 -3.442825317382812 C 253.8902587890625 -2.126407623291016 258.0195922851562 -0.4879913330078125 263.3251647949219 1.796756744384766 C 282.5234069824219 10.06418228149414 307.35205078125 17.90974426269531 309.4679565429688 18.57401275634766 C 310.52783203125 18.73004150390625 317.8423767089844 19.73509216308594 330.2318115234375 19.73509216308594 C 338.138916015625 19.73509216308594 346.5232543945312 19.33192443847656 355.15185546875 18.53684234619141 C 363.5171508789062 17.76601028442383 378.4024047851562 16.0252571105957 401.8102416992188 12.10976028442383 C 415.158447265625 9.876873016357422 425.3717651367188 7.920261383056641 426.4046936035156 7.721458435058594 C 427.9330749511719 7.284332275390625 448.6463928222656 1.395465850830078 466.5780944824219 -1.965740203857422 C 485.1524047851562 -5.447490692138672 501.2375793457031 -6.309822082519531 501.3978271484375 -6.318161010742188 L 501.652587890625 -6.331321716308594 L 501.902587890625 -6.280158996582031 C 502.0595703125 -6.247993469238281 517.7764892578125 -3.052909851074219 532.5897216796875 -1.994907379150391 C 537.00341796875 -1.679740905761719 541.7949829101562 -1.519908905029297 546.8311767578125 -1.519908905029297 C 555.4025268554688 -1.519908905029297 561.787353515625 -1.989658355712891 561.850830078125 -1.994407653808594 L 563.9998168945312 -2.154991149902344 L 564 7.62939453125e-06 L 564 362 L 564 364 L 562 364 L 0 364 L -2 364 L -2 362 L -2 -242.7496643066406 L -2 -246.8378295898438 L 1.22760009765625 -244.3286437988281 C 1.25872802734375 -244.3044128417969 4.43817138671875 -241.843994140625 9.06707763671875 -239.0203247070312 C 15.12860107421875 -235.3226623535156 20.9224853515625 -232.6763305664062 25.8223876953125 -231.3675842285156 C 29.3291015625 -230.430908203125 33.15948486328125 -229.9559936523438 37.20733642578125 -229.9559936523438 C 44.0921630859375 -229.9559936523438 49.26617431640625 -231.3498229980469 49.31768798828125 -231.3639221191406 L 49.57684326171875 -231.434814453125 L 49.84722900390625 -231.4353332519531 L 57.0821533203125 -231.4353332519531 L 76.69790649414062 -277.794921875 L 76.94723510742188 -278.3841552734375 L 77.49224853515625 -278.71923828125 L 110.3717651367188 -298.9365844726562 L 110.6514892578125 -299.1085815429688 L 110.9714965820312 -299.1821594238281 L 138.7181701660156 -305.5567321777344 L 140.4804992675781 -305.9615783691406 Z" stroke="none" fill="#fff"/>
      </g>
      <path id="Path_1" data-name="Path 1" d="M0-242.75s12.845,9.986,25.306,13.314,24.541,0,24.541,0h8.235L78.316-277,110.6-297.659l29.123-7.077,4.064,12.21-44.9,16.435-16.4,12.975L69.622-226.083l15.256-32.075,1.484,7.892-2.951,20.831-.924,20.154,5.189,6.93,5.41,18.738,5.554,29.661s-2.728,14.264,4.669,21.221c11.575,10.888,25.48,28.9,25.48,28.9A111.945,111.945,0,0,0,156.11-79.407C173.7-68.13,199.131-58.723,199.131-58.723l12.521,7.435s-.961,4.475,3.08,13.687,1.135,12.853,13.085,23.162,14.417,9.331,34.717,18.072,46.482,16.895,46.482,16.895,16.855,2.715,46.319,0S426.87,9.669,426.87,9.669,448.289,3.5,466.947,0A291.923,291.923,0,0,1,501.5-4.321,276.785,276.785,0,0,0,532.447,0,230.071,230.071,0,0,0,562,0V362H0Z" transform="translate(63 326)" fill="url(#linear-gradient)"/>
      <g id="Path_3" data-name="Path 3" transform="translate(63 326)" fill="url(#linear-gradient-2)">
        <path d="M 566 366 L 562 366 L 0 366 L -4 366 L -4 362 L -4 -242.7496490478516 L -4 -250.9259185791016 L 2.455090999603271 -245.9075622558594 C 2.575999975204468 -245.8138275146484 14.83100032806396 -236.3735504150391 26.33863639831543 -233.2998199462891 C 29.67718124389648 -232.4080963134766 33.33390808105469 -231.9559173583984 37.20736312866211 -231.9559173583984 C 43.68317413330078 -231.9559173583984 48.58060836791992 -233.2372894287109 48.78532791137695 -233.2917785644531 L 49.63263702392578 -233.5286407470703 L 50.48754501342773 -233.3837432861328 L 58.26815795898438 -232.1220855712891 C 59.2191047668457 -235.2328948974609 60.83879089355469 -240.1773529052734 63.13063812255859 -245.9727325439453 C 65.38999938964844 -251.6857299804688 67.83799743652344 -257.0429077148438 70.40681457519531 -261.8954772949219 C 73.65190887451172 -268.0254516601562 77.10781860351562 -273.3768310546875 80.67854309082031 -277.8009033203125 C 84.41881561279297 -282.4349975585938 89.76490783691406 -286.6720886230469 96.56836700439453 -290.394287109375 C 101.8615417480469 -293.2901916503906 108.0678176879883 -295.8973693847656 115.0149078369141 -298.1434631347656 C 126.7538146972656 -301.9388122558594 136.4976348876953 -303.3916320800781 136.9066314697266 -303.45166015625 L 140.5945434570312 -303.9925537109375 L 141.3939971923828 -300.3520202636719 L 142.2526397705078 -296.4420166015625 L 143.1385498046875 -292.4076538085938 L 139.0779113769531 -291.6515502929688 C 138.9705505371094 -291.6315612792969 128.1448211669922 -289.593017578125 116.3079071044922 -285.7290954589844 C 109.4539108276367 -283.4917297363281 103.6173629760742 -281.0932922363281 98.96027374267578 -278.6003723144531 C 96.28536224365234 -277.16845703125 93.99391174316406 -275.6990966796875 92.14954376220703 -274.2331848144531 C 90.26081848144531 -272.7319946289062 88.82572937011719 -271.2246398925781 87.88400268554688 -269.7529296875 C 80.09982299804688 -257.5877075195312 71.56665802001953 -234.3348388671875 68.62910461425781 -226.0085906982422 L 70.57199859619141 -224.8638305664062 L 73.23027038574219 -223.2975616455078 L 72.39045715332031 -220.3287353515625 L 66.84897613525391 -200.7394104003906 L 76.20236206054688 -191.6922760009766 L 77.42136383056641 -190.51318359375 L 77.42136383056641 -188.8171844482422 L 77.42136383056641 -161.7214660644531 L 85.77527618408203 -149.6587371826172 L 86.11190795898438 -149.1725616455078 L 86.29354858398438 -148.6096496582031 L 92.15573883056641 -130.4418029785156 L 116.2765579223633 -91.74558258056641 L 127.7919692993164 -77.76789093017578 C 128.8411560058594 -76.65567016601562 136.6742553710938 -68.21346282958984 141.8567199707031 -58.71900939941406 C 147.0381622314453 -49.22642135620117 149.3763275146484 -39.04020690917969 149.6928100585938 -37.59003448486328 C 149.9245452880859 -36.78833770751953 151.0254821777344 -32.91347122192383 152.2984619140625 -27.31919097900391 C 153.5948181152344 -21.62219047546387 155.3169097900391 -12.9993724822998 156.1591796875 -4.272918224334717 C 156.7807312011719 2.165172576904297 156.608642578125 5.067990779876709 156.3907318115234 8.743082046508789 C 156.3126373291016 10.06008148193359 156.2319030761719 11.42189979553223 156.1755523681641 13.12517261505127 C 156.0576934814453 16.69685554504395 157.6900329589844 22.03781509399414 158.6444854736328 24.68680191040039 C 162.9394836425781 28.37781143188477 164.6631774902344 30.70638084411621 166.1943664550781 32.77481079101562 C 167.5452728271484 34.59980773925781 168.6122741699219 36.04135513305664 171.6304473876953 38.43762588500977 C 175.1641845703125 41.24326324462891 176.2526397705078 41.66962814331055 178.055908203125 42.37580871582031 C 179.7174530029297 43.02662658691406 181.7853698730469 43.8365364074707 185.7084503173828 46.17499160766602 C 188.7290954589844 47.97544479370117 192.4679107666016 50.67262649536133 196.0836334228516 53.28108215332031 C 198.9894561767578 55.37735366821289 201.9940948486328 57.54489898681641 204.5296325683594 59.17771911621094 C 207.058349609375 60.80611038208008 208.3623352050781 61.4028205871582 208.9515991210938 61.61977767944336 C 209.6362152099609 61.27280807495117 209.8063354492188 61.04496002197266 210.0057220458984 60.7243537902832 C 210.6854553222656 59.63117218017578 211.3557281494141 57.24371719360352 211.9788208007812 54.82653427124023 C 213.5750885009766 48.63135528564453 216.1091766357422 39.8967170715332 219.11572265625 33.46789932250977 C 220.4993591308594 30.5091724395752 222.0866394042969 27.81744575500488 223.8333587646484 25.46744537353516 C 225.2640838623047 23.5427188873291 226.8084564208984 21.83644485473633 228.4235382080078 20.39608192443848 C 231.2482757568359 17.87689971923828 233.3939056396484 16.96290016174316 233.7953643798828 16.80526351928711 L 234.5001831054688 16.52844619750977 L 235.2574615478516 16.52844619750977 L 309.016357421875 16.52844619750977 L 309.3363647460938 16.52844619750977 L 309.6523742675781 16.57935523986816 C 309.7213745117188 16.59035491943359 317.0660095214844 17.73508071899414 330.2318115234375 17.73508071899414 C 338.0780944824219 17.73508071899414 346.400634765625 17.33480834960938 354.96826171875 16.54535484313965 C 382.9613647460938 13.96584606170654 422.9954833984375 6.339252948760986 425.9403991699219 5.774149417877197 C 428.0549621582031 5.170907497406006 448.478271484375 -0.6078446507453918 466.2096252441406 -3.931554794311523 C 484.915283203125 -7.437827587127686 500.6344604492188 -8.281282424926758 501.2944641113281 -8.315464019775391 L 501.8040771484375 -8.341827392578125 L 502.3039855957031 -8.239463806152344 C 502.4595336914062 -8.207645416259766 518.0574340820312 -5.037918567657471 532.732177734375 -3.989827394485474 C 537.0982666015625 -3.678009271621704 541.841796875 -3.519918441772461 546.8311767578125 -3.519918441772461 C 555.3174438476562 -3.519918441772461 561.6389770507812 -3.984191179275513 561.701904296875 -3.988918304443359 L 565.9994506835938 -4.309463977813721 L 566 -9.277343451685738e-06 L 566 362 L 566 366 Z" stroke="none"/>
        <path d="M 137.4870910644531 -299.4940185546875 C 137.4870910644531 -299.4940185546875 98.74127197265625 -293.8116455078125 83.79107666015625 -275.2887268066406 C 68.84100341796875 -256.7658386230469 61.12210083007812 -227.6069946289062 61.12210083007812 -227.6069946289062 L 49.84716796875 -229.4352722167969 C 49.84716796875 -229.4352722167969 44.47906494140625 -227.9559326171875 37.20733642578125 -227.9559326171875 C 33.57183837890625 -227.9559326171875 29.46002197265625 -228.3258361816406 25.30633544921875 -229.4352722167969 C 12.84454345703125 -232.763916015625 0 -242.7496337890625 0 -242.7496337890625 L 0 362 L 562 362 L 562 -7.62939453125e-06 C 562 -7.62939453125e-06 555.5879516601562 0.480072021484375 546.8311767578125 0.480072021484375 C 542.4531860351562 0.480072021484375 537.488525390625 0.3600311279296875 532.447265625 -7.62939453125e-06 C 517.3226318359375 -1.080192565917969 501.5013732910156 -4.320823669433594 501.5013732910156 -4.320823669433594 C 501.5013732910156 -4.320823669433594 485.6043701171875 -3.49737548828125 466.946533203125 -7.62939453125e-06 C 448.288818359375 3.497352600097656 426.8701782226562 9.668628692626953 426.8701782226562 9.668628692626953 C 426.8701782226562 9.668628692626953 384.7987060546875 17.81344604492188 355.3352661132812 20.52844619750977 C 345.512939453125 21.43355560302734 337.0942993164062 21.73511123657227 330.2318115234375 21.73511123657227 C 316.50927734375 21.73511123657227 309.016357421875 20.52844619750977 309.016357421875 20.52844619750977 L 235.2574462890625 20.52844619750977 C 235.2574462890625 20.52844619750977 228.3060913085938 23.25817108154297 222.739013671875 35.162353515625 C 219.9555358886719 41.11444473266602 217.5180053710938 49.36017227172852 215.8521728515625 55.82489776611328 C 214.0348205566406 62.87562561035156 213.1478271484375 64.20699310302734 209.8200988769531 65.62017059326172 C 209.6431884765625 65.69529724121094 209.434814453125 65.73123931884766 209.1974487304688 65.73123931884766 C 204.9698791503906 65.73123931884766 191.5660400390625 54.32305526733398 183.6604614257812 49.61090087890625 C 175.3110046386719 44.63407897949219 176.2418212890625 47.20635223388672 169.1431884765625 41.57026290893555 C 162.0445556640625 35.93417358398438 164.0383605957031 34.40308380126953 155.2658081054688 27.06653594970703 C 155.2658081054688 27.06653594970703 151.9865417480469 18.78817367553711 152.177734375 12.99299240112305 C 152.395263671875 6.413898468017578 152.9846496582031 4.469898223876953 152.177734375 -3.888648986816406 C 150.5863647460938 -20.37500762939453 145.8121032714844 -36.60991668701172 145.8121032714844 -36.60991668701172 C 145.8121032714844 -36.60991668701172 143.6003723144531 -47.17582702636719 138.3457336425781 -56.80255126953125 C 133.0910034179688 -66.42927551269531 124.7932739257812 -75.11700439453125 124.7932739257812 -75.11700439453125 L 113.0215454101562 -89.40582275390625 L 88.50045776367188 -128.7441864013672 L 82.48672485351562 -147.3813781738281 L 73.4212646484375 -160.4716491699219 L 73.4212646484375 -188.8171844482422 L 62.34890747070312 -199.5270080566406 L 68.54144287109375 -221.4175415039062 L 63.77645874023438 -224.22509765625 C 63.77645874023438 -224.22509765625 74.59716796875 -256.4096374511719 84.51473999023438 -271.9088134765625 C 94.43228149414062 -287.4080200195312 138.3457336425781 -295.5841064453125 138.3457336425781 -295.5841064453125 L 137.4870910644531 -299.4940185546875 M 143.701904296875 -308.4909973144531 L 145.3009033203125 -301.2099304199219 L 146.1595458984375 -297.3000183105469 L 147.9302673339844 -289.2369079589844 L 139.8127136230469 -287.7197265625 C 122.9832763671875 -284.5743713378906 96.791259765625 -276.2518310546875 91.25326538085938 -267.5970153808594 C 84.48959350585938 -257.0266418457031 77.07293701171875 -237.6358337402344 73.50762939453125 -227.7768249511719 L 77.91909790039062 -225.1776428222656 L 76.23934936523438 -219.2399291992188 L 71.34878540039062 -201.9517822265625 L 78.98318481445312 -194.5673828125 L 81.4212646484375 -192.2091979980469 L 81.4212646484375 -188.8171844482422 L 81.4212646484375 -162.9713439941406 L 89.06353759765625 -151.9360961914062 L 89.73699951171875 -150.9636383056641 L 90.10018920898438 -149.8380126953125 L 95.81100463867188 -132.1395263671875 L 119.5318603515625 -94.08497619628906 L 130.9677124023438 -80.20382690429688 C 130.9676818847656 -80.2039794921875 130.9676818847656 -80.20405578613281 130.9677734375 -80.20405578613281 C 130.9960632324219 -80.2049560546875 139.6878967285156 -71.04098510742188 145.3677368164062 -60.63546752929688 C 151.1223754882812 -50.09273529052734 153.5421752929688 -38.72764587402344 153.6423645019531 -38.24900817871094 C 153.6908264160156 -38.1741943359375 158.4950866699219 -21.70555114746094 160.1407165527344 -4.657279968261719 C 160.7921752929688 2.090900421142578 160.6029052734375 5.283355712890625 160.3837280273438 8.979808807373047 C 160.3099060058594 10.22444534301758 160.2287292480469 11.58353805541992 160.1733703613281 13.25735473632812 C 160.0928649902344 15.69717407226562 161.1952209472656 19.73910522460938 162.0741577148438 22.37107086181641 C 166.1283569335938 25.96260070800781 167.9290771484375 28.39535522460938 169.4092712402344 30.39498901367188 C 170.6761779785156 32.10635375976562 171.5130920410156 33.23699188232422 174.1176452636719 35.30490112304688 C 177.1815490722656 37.73753356933594 177.9612731933594 38.04290008544922 179.5146484375 38.65135192871094 C 181.2178955078125 39.31844329833984 183.5506286621094 40.23208236694336 187.7565307617188 42.73908233642578 C 190.7909240722656 44.5477180480957 194.599365234375 47.27808380126953 198.4237365722656 50.03699111938477 C 200.9754028320312 51.87783813476562 204.7042541503906 54.56785583496094 207.4341125488281 56.28884887695312 C 207.6195983886719 55.65750503540039 207.8422546386719 54.84894180297852 208.1053771972656 53.82808303833008 C 209.743896484375 47.46917343139648 212.355712890625 38.48053741455078 215.4922790527344 31.77344512939453 C 222.0777282714844 17.69153594970703 230.6764526367188 13.73262786865234 232.3332824707031 13.08198928833008 L 233.7430114746094 12.52844619750977 L 235.2574462890625 12.52844619750977 L 309.016357421875 12.52844619750977 L 309.6416320800781 12.52844619750977 L 310.2738037109375 12.62789916992188 C 310.3442687988281 12.63899230957031 317.4613647460938 13.73508071899414 330.2318115234375 13.73508071899414 C 337.9560852050781 13.73508071899414 346.1551818847656 13.34044647216797 354.6011962890625 12.56217193603516 C 383.3362731933594 9.914356231689453 424.9328002929688 1.895172119140625 425.3496398925781 1.814445495605469 C 425.5447998046875 1.725082397460938 446.6565551757812 -4.336006164550781 465.4726257324219 -7.86309814453125 C 484.4381713867188 -11.41809844970703 500.4166259765625 -12.27537536621094 501.0875549316406 -12.31009674072266 L 502.1055297851562 -12.36283111572266 L 503.10546875 -12.15837097167969 C 503.2589111328125 -12.12700653076172 518.618896484375 -9.008010864257812 533.0172119140625 -7.979644775390625 C 537.858642578125 -7.633918762207031 542.6266479492188 -7.519920349121094 546.8311767578125 -7.519920349121094 C 555.1558837890625 -7.519920349121094 561.2754516601562 -7.968193054199219 561.4048461914062 -7.977828979492188 L 569.997802734375 -8.616554260253906 L 570 -7.62939453125e-06 L 570 362 L 570 370 L 562 370 L 0 370 L -8 370 L -8 362 L -8 -242.7496337890625 L -8 -259.060546875 L 4.90380859375 -249.0704650878906 C 5.020263671875 -248.9802856445312 16.67242431640625 -240.0219116210938 27.37078857421875 -237.1642761230469 C 30.372802734375 -236.3624572753906 33.6822509765625 -235.9559326171875 37.20733642578125 -235.9559326171875 C 43.1934814453125 -235.9559326171875 47.7059326171875 -237.1437377929688 47.75079345703125 -237.1557312011719 L 49.40606689453125 -237.5982055664062 L 51.12771606445312 -237.3320922851562 L 55.49398803710938 -236.6240844726562 C 58.84426879882812 -246.8594970703125 66.18109130859375 -266.2077331542969 77.56582641601562 -280.3132934570312 C 94.29019165039062 -301.0343627929688 134.6177368164062 -307.1587219238281 136.3262634277344 -307.4093627929688 L 143.701904296875 -308.4909973144531 Z" stroke="none" fill="#fff"/>
      </g>
      <path id="Path_4" data-name="Path 4" d="M352.488,488.181,343.349,539.2l-7.3,10.562,7.3,5.792-7.3-5.792-10.836,15.686,10.836-15.686,7.3-10.562,66.684,26.248,28.76,17.493s14.366,6.256,22.153,29.317-6.351,39.224-14.353,52.3-17.655,0-17.655,0-10.237-12.615-19.479-21.106c-.472-.434,8.654-6.364,8.654-6.364l-8.654,6.364s-9.8-6.962-14.415-7.456c-14.378-1.541-23.618,22.4-23.618,22.4l-28.077,6.163L335.3,685.315,322.03,754.262,335.3,685.315l8.051-20.762H335.3c-22.585,2.939-5.518-64.027-10.081-75.505s-5.9-14.865,0-23.6a7.338,7.338,0,0,0-5.255-1.509c-8.553.636-26.694,3.2-33.393-2.4-9-7.521,1.726-17.167,2.632-26.176l.991-9.858s-17.44,13.164-18.345-10.53,14.722-84.245,14.722-84.245" transform="translate(-78 -61)" fill="none" stroke="#fff" stroke-width="4"/>
      <path id="Path_5" data-name="Path 5" d="M703,446.352a167.048,167.048,0,0,1-40.528,0c-21.169-2.786-14.31-10.189-44.149-11.146-26.079-.836-32.451-.371-64.381,3.764S515.3,451.746,490.6,451.746s-24.461-5.088-46.26-9.223-24.008-2.23-40.934-7.318-17.76-13.032-26.771-13.032-9.275,13.032-9.275,13.032l-14.874,52.975s.876-10.507-.664-14.782-2.62-4.782-2.62-4.782l-18.91-13.365s-29.389-23.8-32.847-24.847-10.879,0-10.879,0-2.4-40.735-24.571-86.684c-8.735-18.1-37.473-37.1-48.7-53.562-16.943-24.843-18.679-54.492-37.963-73.351s-46.505-21.1-46.505-21.1" transform="translate(-78 -61)" fill="none" stroke="#fff" stroke-width="6"/>
      <path id="Path_6" data-name="Path 6" d="M701.3,725.977l-31.077-10.62-32.172-16.921s-35.923-23.821-59.57-42.428-23.577-14.847-38.192-29.282-20.266-28.46-20.266-28.46l69.453-58.752-69.453,58.752L482.693,514.96s-1.552-7.687-13.239-12.09-16.418,3.042-33.512-5.522-24.047-12-34.864-28.732-8.4-38.212-8.4-38.212-7.232-8.091-16.039-8.231-9.275,13.032-9.275,13.032L349.2,507.091s3.774-32.7,2.023-35.343-2.023-3.131-2.023-3.131-8.077-3.657-11.952,5.961-1.432,17.253-3.548,32.512.718,16.923-4.755,22.563-17.139,0-17.139,0L323.7,468.617,311.81,529.655s-16.781-8.2-20.932-3.194,17.465-87.554,17.465-87.554" transform="translate(-78 -61)" fill="none" stroke="#fff" stroke-width="4"/>
    </g>
    <path id="Path_7" data-name="Path 7" d="M518.6,538.829l-11.554-17.1s-8.11-4.526-36.42,20.985L487.6,565.893Z" transform="translate(-80 -60)" fill="none" stroke="#fff" stroke-width="2"/>
    <path id="Path_8" data-name="Path 8" d="M504.46,531.62s-.283-7.144-15.507-21.528c-14.082-13.3-57.24-32.549-57.24-32.549L418.89,512.192l12.822-34.648s-5.743-2.3-5.8-2.321c-35.28-10.383-61.914,6.15-73.762,1.506s-11.4-18.934-4.314-17.6S375.779,474.6,375.779,474.6" transform="translate(-78 -70)" fill="none" stroke="#fff" stroke-width="2"/>
    <path id="Path_9" data-name="Path 9" d="M221.92,437.267s-4.1-18.826-2.754-32.8a49.781,49.781,0,0,1,8.142-23.092" transform="translate(-78 -70)" fill="none" stroke="#fff" stroke-width="2"/>
    <path id="Path_10" data-name="Path 10" d="M113.057,235.01s10.735-9.548,6.063-20.721c-2.1-5.013-20.639-11.495-21.376-15.682-2.253-12.806,6.3-14.821,6.3-14.821l19.013,7.919" transform="translate(-78 -70)" fill="none" stroke="#fff" stroke-width="4"/>
    <path id="Path_11" data-name="Path 11" d="M112.918,189.949s3.657-7.475,6.332-13.9,4.366-11.8,4.366-11.8" transform="translate(-71.839 -70)" fill="none" stroke="#fff" stroke-width="2"/>
    <g id="Rectangle_1" data-name="Rectangle 1" transform="translate(140.847 375.969) rotate(13)" fill="rgba(255,255,255,0.82)" stroke="#fff" stroke-width="1">
      <rect width="16" height="10" stroke="none"/>
      <rect x="0.5" y="0.5" width="15" height="9" fill="none"/>
    </g>
    <g id="Rectangle_63" data-name="Rectangle 63" transform="translate(314.307 462.747) rotate(-26)" fill="rgba(255,255,255,0.82)" stroke="#fff" stroke-width="1">
      <rect width="16" height="10" stroke="none"/>
      <rect x="0.5" y="0.5" width="15" height="9" fill="none"/>
    </g>
    <g id="Rectangle_1-2" data-name="Rectangle 1" transform="translate(138.598 385.713) rotate(13)" fill="rgba(255,255,255,0.82)" stroke="#fff" stroke-width="1">
      <rect width="16" height="10" stroke="none"/>
      <rect x="0.5" y="0.5" width="15" height="9" fill="none"/>
    </g>
    <g id="Rectangle_62" data-name="Rectangle 62" transform="translate(317.792 472.173) rotate(-26)" fill="rgba(255,255,255,0.82)" stroke="#fff" stroke-width="1">
      <rect width="17" height="10" stroke="none"/>
      <rect x="0.5" y="0.5" width="16" height="9" fill="none"/>
    </g>
    <g id="Rectangle_1-3" data-name="Rectangle 1" transform="translate(136.348 395.457) rotate(13)" fill="rgba(255,255,255,0.82)" stroke="#fff" stroke-width="1">
      <rect width="16" height="10" stroke="none"/>
      <rect x="0.5" y="0.5" width="15" height="9" fill="none"/>
    </g>
    <g id="Rectangle_61" data-name="Rectangle 61" transform="translate(323.075 480.723) rotate(-26)" fill="rgba(255,255,255,0.82)" stroke="#fff" stroke-width="1">
      <rect width="16" height="10" stroke="none"/>
      <rect x="0.5" y="0.5" width="15" height="9" fill="none"/>
    </g>
    <g id="Rectangle_1-4" data-name="Rectangle 1" transform="translate(134.606 405.318) rotate(13)" fill="rgba(255,255,255,0.82)" stroke="#fff" stroke-width="1">
      <rect width="15.479" height="10" stroke="none"/>
      <rect x="0.5" y="0.5" width="14.479" height="9" fill="none"/>
    </g>
    <g id="Rectangle_60" data-name="Rectangle 60" transform="matrix(0.914, -0.407, 0.407, 0.914, 327.624, 490.147)" fill="rgba(255,255,255,0.82)" stroke="#fff" stroke-width="1">
      <rect width="15.956" height="10" stroke="none"/>
      <rect x="0.5" y="0.5" width="14.956" height="9" fill="none"/>
    </g>
    <g id="Rectangle_1-5" data-name="Rectangle 1" transform="translate(131.849 414.944) rotate(13)" fill="rgba(255,255,255,0.82)" stroke="#fff" stroke-width="1">
      <rect width="16" height="10" stroke="none"/>
      <rect x="0.5" y="0.5" width="15" height="9" fill="none"/>
    </g>
    <g id="Rectangle_59" data-name="Rectangle 59" transform="matrix(0.914, -0.407, 0.407, 0.914, 331.651, 499.301)" fill="rgba(255,255,255,0.82)" stroke="#fff" stroke-width="1">
      <rect width="16" height="10" stroke="none"/>
      <rect x="0.5" y="0.5" width="15" height="9" fill="none"/>
    </g>
    <g id="Rectangle_2" data-name="Rectangle 2" transform="translate(129.395 425.816) rotate(11)" fill="rgba(255,255,255,0.82)" stroke="#fff" stroke-width="1">
      <rect width="16" height="10" stroke="none"/>
      <rect x="0.5" y="0.5" width="15" height="9" fill="none"/>
    </g>
    <g id="Rectangle_58" data-name="Rectangle 58" transform="translate(336.233 509.461) rotate(-26)" fill="rgba(255,255,255,0.82)" stroke="#fff" stroke-width="1">
      <rect width="16" height="10" stroke="none"/>
      <rect x="0.5" y="0.5" width="15" height="9" fill="none"/>
    </g>
    <g id="Rectangle_3" data-name="Rectangle 3" transform="translate(127.486 435.633) rotate(11)" fill="rgba(255,255,255,0.82)" stroke="#fff" stroke-width="1">
      <rect width="16" height="10" stroke="none"/>
      <rect x="0.5" y="0.5" width="15" height="9" fill="none"/>
    </g>
    <g id="Rectangle_57" data-name="Rectangle 57" transform="translate(340.617 518.449) rotate(-26)" fill="rgba(255,255,255,0.82)" stroke="#fff" stroke-width="1">
      <rect width="16" height="10" stroke="none"/>
      <rect x="0.5" y="0.5" width="15" height="9" fill="none"/>
    </g>
    <g id="Rectangle_4" data-name="Rectangle 4" transform="translate(117.534 367.8) rotate(13)" fill="rgba(255,255,255,0.82)" stroke="#fff" stroke-width="1">
      <rect width="17" height="10" stroke="none"/>
      <rect x="0.5" y="0.5" width="16" height="9" fill="none"/>
    </g>
    <g id="Path_13" data-name="Path 13" transform="translate(108.507 409.046) rotate(7)" fill="rgba(255,255,255,0.82)">
      <path d="M 15.53530788421631 9.5 L 0.543911874294281 9.5 L 1.369439601898193 -0.2939628660678864 L 16.1589183807373 0.9922927021980286 L 15.53530788421631 9.5 Z" stroke="none"/>
      <path d="M 1.825571060180664 0.2475948333740234 L 1.087836265563965 9 L 15.07061862945557 9 L 15.62419986724854 1.447675228118896 L 1.825571060180664 0.2475948333740234 M 0.9133167266845703 -0.8355197906494141 L 16.69363784790039 0.5369100570678711 L 15.99999713897705 10 L -3.814697265625e-06 10 L 0.9133167266845703 -0.8355197906494141 Z" stroke="none" fill="#fff"/>
    </g>
    <g id="Path_21" data-name="Path 21" transform="translate(157.217 538.451) rotate(3)" fill="rgba(255,255,255,0.82)">
      <path d="M 15.47311401367188 9.500002861022949 L 0.5337936878204346 9.500002861022949 L 1.069968938827515 1.308117032051086 L 15.00551795959473 0.5777806639671326 L 15.47311401367188 9.500002861022949 Z" stroke="none"/>
      <path d="M 14.5323657989502 1.103269577026367 L 1.539876937866211 1.784181594848633 L 1.067586898803711 9.000002861022949 L 14.94621849060059 9.000002861022949 L 14.5323657989502 1.103269577026367 M 15.47865962982178 0.05230236053466797 L 16 10.00000286102295 L 0 10.00000286102295 L 0.6000604629516602 0.8320627212524414 L 15.47865962982178 0.05230236053466797 Z" stroke="none" fill="#fff"/>
    </g>
    <g id="Rectangle_19" data-name="Rectangle 19" transform="matrix(0.891, -0.454, 0.454, 0.891, 100.051, 459.335)" fill="rgba(255,255,255,0.82)" stroke="#fff" stroke-width="1">
      <rect width="16" height="10" stroke="none"/>
      <rect x="0.5" y="0.5" width="15" height="9" fill="none"/>
    </g>
    <g id="Rectangle_5" data-name="Rectangle 5" transform="translate(116.259 377.769) rotate(13)" fill="rgba(255,255,255,0.82)" stroke="#fff" stroke-width="1">
      <rect width="16" height="10" stroke="none"/>
      <rect x="0.5" y="0.5" width="15" height="9" fill="none"/>
    </g>
    <g id="Rectangle_14" data-name="Rectangle 14" transform="translate(107.288 418.971) rotate(7)" fill="rgba(255,255,255,0.82)" stroke="#fff" stroke-width="1">
      <rect width="16" height="10" stroke="none"/>
      <rect x="0.5" y="0.5" width="15" height="9" fill="none"/>
    </g>
    <g id="Rectangle_36" data-name="Rectangle 36" transform="translate(156.694 548.437) rotate(3)" fill="rgba(255,255,255,0.82)" stroke="#fff" stroke-width="1">
      <rect width="16" height="10" stroke="none"/>
      <rect x="0.5" y="0.5" width="15" height="9" fill="none"/>
    </g>
    <g id="Rectangle_18" data-name="Rectangle 18" transform="matrix(0.891, -0.454, 0.454, 0.891, 104.002, 468.245)" fill="rgba(255,255,255,0.82)" stroke="#fff" stroke-width="1">
      <rect width="16" height="10" stroke="none"/>
      <rect x="0.5" y="0.5" width="15" height="9" fill="none"/>
    </g>
    <g id="Rectangle_6" data-name="Rectangle 6" transform="translate(114.01 387.513) rotate(13)" fill="rgba(255,255,255,0.82)" stroke="#fff" stroke-width="1">
      <rect width="16" height="10" stroke="none"/>
      <rect x="0.5" y="0.5" width="15" height="9" fill="none"/>
    </g>
    <g id="Rectangle_13" data-name="Rectangle 13" transform="translate(106.069 428.897) rotate(7)" fill="rgba(255,255,255,0.82)" stroke="#fff" stroke-width="1">
      <rect width="16" height="10" stroke="none"/>
      <rect x="0.5" y="0.5" width="15" height="9" fill="none"/>
    </g>
    <g id="Rectangle_38" data-name="Rectangle 38" transform="translate(155.313 560.488) rotate(3)" fill="rgba(255,255,255,0.82)" stroke="#fff" stroke-width="1">
      <rect width="16" height="10" stroke="none"/>
      <rect x="0.5" y="0.5" width="15" height="9" fill="none"/>
    </g>
    <g id="Rectangle_17" data-name="Rectangle 17" transform="matrix(0.891, -0.454, 0.454, 0.891, 105.907, 477.994)" fill="rgba(255,255,255,0.82)" stroke="#fff" stroke-width="1">
      <rect width="20.649" height="14.645" stroke="none"/>
      <rect x="0.5" y="0.5" width="19.649" height="13.645" fill="none"/>
    </g>
    <g id="Rectangle_7" data-name="Rectangle 7" transform="translate(111.76 397.256) rotate(13)" fill="rgba(255,255,255,0.82)" stroke="#fff" stroke-width="1">
      <rect width="16" height="10" stroke="none"/>
      <rect x="0.5" y="0.5" width="15" height="9" fill="none"/>
    </g>
    <g id="Rectangle_12" data-name="Rectangle 12" transform="translate(104.851 438.822) rotate(7)" fill="rgba(255,255,255,0.82)" stroke="#fff" stroke-width="1">
      <rect width="16" height="10" stroke="none"/>
      <rect x="0.5" y="0.5" width="15" height="9" fill="none"/>
    </g>
    <g id="Rectangle_37" data-name="Rectangle 37" transform="translate(154.789 570.475) rotate(3)" fill="rgba(255,255,255,0.82)" stroke="#fff" stroke-width="1">
      <rect width="15.348" height="10" stroke="none"/>
      <rect x="0.5" y="0.5" width="14.348" height="9" fill="none"/>
    </g>
    <g id="Path_12" data-name="Path 12" transform="matrix(0.891, -0.454, 0.454, 0.891, 111.401, 487.066)" fill="rgba(255,255,255,0.82)">
      <path d="M16,10h0Z" stroke="none"/>
      <path d="M 0 10 L 16 10 L 0 10 Z" stroke="none" fill="#fff"/>
    </g>
    <g id="Rectangle_8" data-name="Rectangle 8" transform="translate(157.087 401.239) rotate(13)" fill="rgba(255,255,255,0.82)" stroke="#fff" stroke-width="1">
      <rect width="9.534" height="12.539" stroke="none"/>
      <rect x="0.5" y="0.5" width="8.534" height="11.539" fill="none"/>
    </g>
    <g id="Rectangle_9" data-name="Rectangle 9" transform="translate(154.266 413.457) rotate(13)" fill="rgba(255,255,255,0.82)" stroke="#fff" stroke-width="1">
      <rect width="16" height="10" stroke="none"/>
      <rect x="0.5" y="0.5" width="15" height="9" fill="none"/>
    </g>
    <g id="Rectangle_10" data-name="Rectangle 10" transform="translate(152.016 423.2) rotate(13)" fill="rgba(255,255,255,0.82)" stroke="#fff" stroke-width="1">
      <rect width="16" height="10" stroke="none"/>
      <rect x="0.5" y="0.5" width="15" height="9" fill="none"/>
    </g>
    <g id="Path_14" data-name="Path 14" transform="translate(149.767 432.944) rotate(13)" fill="rgba(255,255,255,0.82)">
      <path d="M 14.84510135650635 9.813886642456055 L 0.5 9.510463714599609 L 0.5 0.500001072883606 L 15.46558570861816 0.500001072883606 L 14.84510135650635 9.813886642456055 Z" stroke="none"/>
      <path d="M 1 1.000000953674316 L 1 9.020925521850586 L 14.37796306610107 9.303892135620117 L 14.93116283416748 1.000000953674316 L 1 1.000000953674316 M 0 9.5367431640625e-07 L 16 9.5367431640625e-07 L 15.31223011016846 10.32388114929199 L 0 10.00000095367432 L 0 9.5367431640625e-07 Z" stroke="none" fill="#fff"/>
    </g>
    <g id="Group_2" data-name="Group 2" transform="translate(489.992 83.503) rotate(51)">
      <g id="Rectangle_20" data-name="Rectangle 20" transform="translate(208 459)" fill="rgba(255,255,255,0.82)" stroke="#fff" stroke-width="1">
        <rect width="21" height="18" stroke="none"/>
        <rect x="0.5" y="0.5" width="20" height="17" fill="none"/>
      </g>
      <g id="Rectangle_21" data-name="Rectangle 21" transform="translate(228 449)" fill="rgba(255,255,255,0.82)" stroke="#fff" stroke-width="1">
        <rect width="20" height="28" stroke="none"/>
        <rect x="0.5" y="0.5" width="19" height="27" fill="none"/>
      </g>
      <g id="Rectangle_22" data-name="Rectangle 22" transform="translate(247 459)" fill="rgba(255,255,255,0.82)" stroke="#fff" stroke-width="1">
        <rect width="13" height="29" stroke="none"/>
        <rect x="0.5" y="0.5" width="12" height="28" fill="none"/>
      </g>
      <g id="Path_15" data-name="Path 15" transform="translate(219 436.543)" fill="rgba(255,255,255,0.82)">
        <path d="M 34.5 22.95669746398926 L 28.90335083007812 22.95669746398926 L 28.90335083007812 10.71694755554199 L 28.90335083007812 10.21694755554199 L 28.40335083007812 10.21694755554199 L 9.285750389099121 10.21694755554199 L 8.785750389099121 10.21694755554199 L 8.785750389099121 10.71694755554199 L 8.785750389099121 22.95669746398926 L 0.5 22.95669746398926 L 0.5 0.4999977648258209 L 34.5 0.4999977648258209 L 34.5 22.95669746398926 Z" stroke="none"/>
        <path d="M 1 0.9999980926513672 L 1 22.45669746398926 L 8.285749435424805 22.45669746398926 L 8.285749435424805 10.71694755554199 L 8.285749435424805 9.716947555541992 L 9.285749435424805 9.716947555541992 L 28.40335083007812 9.716947555541992 L 29.40335083007812 9.716947555541992 L 29.40335083007812 10.71694755554199 L 29.40335083007812 22.45669746398926 L 34 22.45669746398926 L 34 0.9999980926513672 L 1 0.9999980926513672 M 0 -1.9073486328125e-06 L 35 -1.9073486328125e-06 L 35 23.45669746398926 L 28.40335083007812 23.45669746398926 L 28.40335083007812 10.71694755554199 L 9.285749435424805 10.71694755554199 L 9.285749435424805 23.45669746398926 L 0 23.45669746398926 L 0 -1.9073486328125e-06 Z" stroke="none" fill="#fff"/>
      </g>
    </g>
    <g id="Path_16" data-name="Path 16" transform="translate(270 392)" fill="rgba(255,255,255,0.82)">
      <path d="M 15.50876808166504 11.93087959289551 C 14.19611835479736 11.93087959289551 12.58615779876709 11.69119930267334 11.02919769287109 11.45941925048828 C 9.46845817565918 11.22706890106201 7.99426794052124 11.00759887695312 6.774968147277832 11.00759887695312 C 4.741688251495361 11.00759887695312 2.769688129425049 10.49291896820068 1.3646080493927 9.595529556274414 C 0.2961880564689636 8.913148880004883 -0.9774119257926941 7.670689105987549 -0.9774119257926941 5.626739025115967 C -0.9774119257926941 4.707149028778076 -1.054471969604492 3.915349245071411 -1.116391897201538 3.279129266738892 C -1.210181951522827 2.315349340438843 -1.277951955795288 1.619009256362915 -1.005171895027161 1.318389296531677 C -0.7365419268608093 1.022349238395691 -0.009641940705478191 0.8844592571258545 1.282408118247986 0.8844592571258545 C 2.108567953109741 0.8844592571258545 3.936028003692627 1.66076922416687 5.93806791305542 2.862199306488037 C 8.0181884765625 4.110489368438721 9.865818023681641 5.565949440002441 10.75991821289062 6.660599231719971 C 11.72664833068848 7.840109348297119 13.61115837097168 8.370379447937012 15.27382850646973 8.83821964263916 C 16.73705863952637 9.24994945526123 18.25011825561523 9.675689697265625 18.25011825561523 10.35168933868408 C 18.25011825561523 10.93380928039551 18.04754829406738 11.30567932128906 17.59330749511719 11.55742931365967 C 17.14619827270508 11.8052396774292 16.44485855102539 11.93087959289551 15.50876808166504 11.93087959289551 Z" stroke="none"/>
      <path d="M 1.282407760620117 1.384459495544434 C -0.3093318939208984 1.384459495544434 -0.5939922332763672 1.609319686889648 -0.6349010467529297 1.654389381408691 C -0.7588520050048828 1.790999412536621 -0.6745414733886719 2.657389640808105 -0.6187419891357422 3.230709075927734 C -0.5557823181152344 3.877689361572266 -0.4774227142333984 4.682888984680176 -0.4774227142333984 5.626739501953125 C -0.4774227142333984 7.085929393768311 0.2328777313232422 8.279439926147461 1.63372802734375 9.174139022827148 C 2.960588455200195 10.02156925201416 4.834498405456543 10.50759887695312 6.774968147277832 10.50759887695312 C 8.031288146972656 10.50759887695312 9.523258209228516 10.72970962524414 11.10282802581787 10.96486949920654 C 12.64178848266602 11.1939697265625 14.23313808441162 11.43087959289551 15.50876808166504 11.43087959289551 C 16.35906791687012 11.43087959289551 16.97885894775391 11.32631874084473 17.35092735290527 11.12010955810547 C 17.59613037109375 10.98421096801758 17.74856758117676 10.80907249450684 17.75005722045898 10.35645294189453 C 17.72974967956543 10.32489395141602 17.6059398651123 10.16474914550781 17.072998046875 9.938329696655273 C 16.55410766601562 9.717889785766602 15.8664379119873 9.524389266967773 15.13839817047119 9.319528579711914 C 13.40470790863037 8.831699371337891 11.4397087097168 8.278789520263672 10.37267875671387 6.976889133453369 C 9.512607574462891 5.923909187316895 7.714777946472168 4.511528968811035 5.680788040161133 3.290928840637207 C 3.498038291931152 1.981059074401855 1.870708465576172 1.384459495544434 1.282407760620117 1.384459495544434 M 1.282407760620117 0.3844594955444336 C 3.258208274841309 0.3844594955444336 9.119537353515625 3.861888885498047 11.14715766906738 6.34429931640625 C 12.95842838287354 8.554229736328125 18.75011825561523 8.329769134521484 18.75011825561523 10.35168933868408 C 18.75011825561523 11.96094512939453 17.39208602905273 12.43088245391846 15.5087718963623 12.43088245391846 C 12.86771583557129 12.43088245391846 9.192895889282227 11.50759887695312 6.774968147277832 11.50759887695312 C 2.632827758789062 11.50759887695312 -1.477422714233398 9.492729187011719 -1.477422714233398 5.626739501953125 C -1.477422714233398 1.760748863220215 -2.859722137451172 0.3844594955444336 1.282407760620117 0.3844594955444336 Z" stroke="none" fill="#fff"/>
    </g>
    <g id="Rectangle_23" data-name="Rectangle 23" transform="matrix(-0.358, 0.934, -0.934, -0.358, 349.211, 411.207)" fill="rgba(255,255,255,0.82)" stroke="#fff" stroke-width="1">
      <rect width="6" height="14" stroke="none"/>
      <rect x="0.5" y="0.5" width="5" height="13" fill="none"/>
    </g>
    <g id="Rectangle_23-2" data-name="Rectangle 23" transform="matrix(-0.358, 0.934, -0.934, -0.358, 344.911, 422.41)" fill="rgba(255,255,255,0.82)" stroke="#fff" stroke-width="1">
      <rect width="6" height="14" stroke="none"/>
      <rect x="0.5" y="0.5" width="5" height="13" fill="none"/>
    </g>
    <g id="Rectangle_23-3" data-name="Rectangle 23" transform="matrix(-0.358, 0.934, -0.934, -0.358, 340.61, 433.613)" fill="rgba(255,255,255,0.82)" stroke="#fff" stroke-width="1">
      <rect width="6" height="14" stroke="none"/>
      <rect x="0.5" y="0.5" width="5" height="13" fill="none"/>
    </g>
    <g id="Rectangle_24" data-name="Rectangle 24" transform="matrix(-0.891, -0.454, 0.454, -0.891, 411.502, 431.994)" fill="rgba(255,255,255,0.82)" stroke="#fff" stroke-width="1">
      <rect width="6" height="14" stroke="none"/>
      <rect x="0.5" y="0.5" width="5" height="13" fill="none"/>
    </g>
    <g id="Rectangle_25" data-name="Rectangle 25" transform="matrix(-0.891, -0.454, 0.454, -0.891, 400.81, 426.546)" fill="rgba(255,255,255,0.82)" stroke="#fff" stroke-width="1">
      <rect width="6" height="14" stroke="none"/>
      <rect x="0.5" y="0.5" width="5" height="13" fill="none"/>
    </g>
    <g id="Rectangle_30" data-name="Rectangle 30" transform="matrix(-0.891, -0.454, 0.454, -0.891, 390.117, 448.934)" fill="rgba(255,255,255,0.82)" stroke="#fff" stroke-width="1">
      <rect width="6" height="14" stroke="none"/>
      <rect x="0.5" y="0.5" width="5" height="13" fill="none"/>
    </g>
    <g id="Rectangle_26" data-name="Rectangle 26" transform="matrix(-0.891, -0.454, 0.454, -0.891, 390.117, 421.098)" fill="rgba(255,255,255,0.82)" stroke="#fff" stroke-width="1">
      <rect width="6" height="14" stroke="none"/>
      <rect x="0.5" y="0.5" width="5" height="13" fill="none"/>
    </g>
    <g id="Rectangle_31" data-name="Rectangle 31" transform="matrix(-0.891, -0.454, 0.454, -0.891, 379.425, 443.487)" fill="rgba(255,255,255,0.82)" stroke="#fff" stroke-width="1">
      <rect width="6" height="14" stroke="none"/>
      <rect x="0.5" y="0.5" width="5" height="13" fill="none"/>
    </g>
    <g id="Rectangle_27" data-name="Rectangle 27" transform="matrix(-0.891, -0.454, 0.454, -0.891, 379.425, 415.65)" fill="rgba(255,255,255,0.82)" stroke="#fff" stroke-width="1">
      <rect width="6" height="14" stroke="none"/>
      <rect x="0.5" y="0.5" width="5" height="13" fill="none"/>
    </g>
    <g id="Rectangle_32" data-name="Rectangle 32" transform="matrix(-0.891, -0.454, 0.454, -0.891, 368.733, 438.039)" fill="rgba(255,255,255,0.82)" stroke="#fff" stroke-width="1">
      <rect width="6" height="14" stroke="none"/>
      <rect x="0.5" y="0.5" width="5" height="13" fill="none"/>
    </g>
    <g id="Rectangle_28" data-name="Rectangle 28" transform="matrix(-0.891, -0.454, 0.454, -0.891, 368.733, 410.202)" fill="rgba(255,255,255,0.82)" stroke="#fff" stroke-width="1">
      <rect width="6" height="14" stroke="none"/>
      <rect x="0.5" y="0.5" width="5" height="13" fill="none"/>
    </g>
    <g id="Rectangle_33" data-name="Rectangle 33" transform="matrix(-0.891, -0.454, 0.454, -0.891, 358.041, 432.591)" fill="rgba(255,255,255,0.82)" stroke="#fff" stroke-width="1">
      <rect width="6" height="14" stroke="none"/>
      <rect x="0.5" y="0.5" width="5" height="13" fill="none"/>
    </g>
    <path id="Path_17" data-name="Path 17" d="M313.443,436.189c-4,18.758-2.606,25.681,3.523,44.137s20.44,31.3,20.44,31.3" transform="translate(-78 -70)" fill="none" stroke="#fff" stroke-width="2"/>
    <g id="Path_18" data-name="Path 18" transform="translate(166.284 398.231) rotate(13)" fill="rgba(255,255,255,0.82)">
      <path d="M 6.9078049659729 17.36203956604004 L 0.5178443789482117 17.36203956604004 L 0.9191951155662537 5.923749923706055 L 0.9373450875282288 5.406519889831543 L 0.4197950959205627 5.406219959259033 L -7.732926845550537 5.401472568511963 L -7.703705310821533 0.5660280585289001 L 6.9078049659729 0.5021936893463135 L 6.9078049659729 17.36203956604004 Z" stroke="none"/>
      <path d="M 6.407805442810059 1.004377365112305 L -7.206705093383789 1.063846588134766 L -7.229898452758789 4.901764869689941 L 0.4200855493545532 4.906219482421875 L 1.455185651779175 4.906819343566895 L 1.418885469436646 5.941289901733398 L 1.035694479942322 16.86203956604004 L 6.407805442810059 16.86203956604004 L 6.407805442810059 1.004377365112305 M 7.407805919647217 0 L 7.407805919647217 17.86203956604004 L -4.410743713378906e-06 17.86203956604004 L 0.4195055961608887 5.906219482421875 L -8.235954284667969 5.901179313659668 L -8.200704574584961 0.06818008422851562 L 7.407805919647217 0 Z" stroke="none" fill="#fff"/>
    </g>
    <g id="Path_19" data-name="Path 19" transform="translate(255.689 450.111) rotate(141)" fill="rgba(255,255,255,0.82)">
      <path d="M 5.000002384185791 7.499996662139893 C 3.726892471313477 7.499996662139893 2.300082445144653 7.089746952056885 1.183292388916016 6.402576923370361 C 0.05863236635923386 5.710566997528076 -0.586397647857666 4.834867000579834 -0.586397647857666 3.999996900558472 C -0.586397647857666 2.577806949615479 -0.1426676362752914 0.2199568599462509 0.8438423871994019 -0.569253146648407 C 1.044062376022339 -0.7294331192970276 1.331602334976196 -0.8072931170463562 1.722882390022278 -0.8072931170463562 C 2.405492305755615 -0.8072931170463562 3.253402471542358 -0.5641031265258789 4.001502513885498 -0.3495331406593323 C 4.685092449188232 -0.153463140130043 5.27546215057373 0.01586686074733734 5.741942405700684 0.01586686074733734 C 7.171822547912598 0.01586686074733734 8.045052528381348 0.6889768838882446 8.525802612304688 1.253636837005615 C 9.144922256469727 1.980816841125488 9.500001907348633 2.981826782226562 9.500001907348633 3.999996900558472 C 9.500001907348633 5.929906845092773 7.481312274932861 7.499996662139893 5.000002384185791 7.499996662139893 Z" stroke="none"/>
      <path d="M 1.722882270812988 -0.3072929382324219 C 1.537622451782227 -0.3072929382324219 1.288922309875488 -0.2850031852722168 1.156192302703857 -0.1788129806518555 C 0.3085222244262695 0.4993166923522949 -0.08639717102050781 2.715636968612671 -0.08639717102050781 3.999996900558472 C -0.08639717102050781 5.429906845092773 2.575642585754395 6.999996662139893 5.000002384185791 6.999996662139893 C 6.109342575073242 6.999996662139893 7.143102645874023 6.661746978759766 7.910842418670654 6.04755687713623 C 8.613192558288574 5.485666751861572 9.000001907348633 4.758496761322021 9.000001907348633 3.999996900558472 C 9.000001907348633 2.268606901168823 7.880882263183594 0.515866756439209 5.741942405700684 0.515866756439209 C 5.205172538757324 0.515866756439209 4.583492279052734 0.3375568389892578 3.863652229309082 0.1310968399047852 C 3.147222518920898 -0.07439327239990234 2.335212230682373 -0.3072929382324219 1.722882270812988 -0.3072929382324219 M 1.722878456115723 -1.307295799255371 C 3.083632946014404 -1.307295799255371 4.855008602142334 -0.484133243560791 5.741942405700684 -0.484133243560791 C 8.503362655639648 -0.484133243560791 10.00000190734863 1.790856838226318 10.00000190734863 3.999996900558472 C 10.00000190734863 6.209136962890625 7.761422157287598 7.999997138977051 5.000002384185791 7.999997138977051 C 2.238572597503662 7.999997138977051 -1.086397171020508 6.209136962890625 -1.086397171020508 3.999996900558472 C -1.086397171020508 2.740786790847778 -0.7185077667236328 0.04031705856323242 0.5314922332763672 -0.9596829414367676 C 0.8478069305419922 -1.212734699249268 1.261881351470947 -1.307295799255371 1.722878456115723 -1.307295799255371 Z" stroke="none" fill="#fff"/>
    </g>
    <g id="Rectangle_34" data-name="Rectangle 34" transform="translate(252.357 441.229) rotate(141)" fill="rgba(255,255,255,0.82)" stroke="#fff" stroke-width="1">
      <rect width="17" height="21" stroke="none"/>
      <rect x="0.5" y="0.5" width="16" height="20" fill="none"/>
    </g>
    <g id="Rectangle_35" data-name="Rectangle 35" transform="translate(233.258 433.534) rotate(141)" fill="rgba(255,255,255,0.82)" stroke="#fff" stroke-width="1">
      <rect width="1" height="5" stroke="none"/>
      <rect x="0.5" y="0.5" height="4" fill="none"/>
    </g>
    <g id="Path_20" data-name="Path 20" transform="matrix(0.809, 0.588, -0.588, 0.809, 202.337, 494.185)" fill="rgba(255,255,255,0.82)">
      <path d="M 9.5 28.5 L 0.5 28.5 L 0.5 0.5 L 18.5 0.5 L 18.5 18.21427917480469 L 10 18.21427917480469 L 9.5 18.21427917480469 L 9.5 18.71427917480469 L 9.5 28.5 Z" stroke="none"/>
      <path d="M 1 1 L 1 28 L 9 28 L 9 18.71427917480469 L 9 17.71427917480469 L 10 17.71427917480469 L 18 17.71427917480469 L 18 1 L 1 1 M 0 0 L 19 0 L 19 18.71427917480469 L 10 18.71427917480469 L 10 29 L 0 29 L 0 0 Z" stroke="none" fill="#fff"/>
    </g>
    <g transform="matrix(1, 0, 0, 1, 0, 0)" filter="url(#Skinningrove.)">
      <text id="Skinningrove.-2" data-name="Skinningrove." transform="translate(518 51)" fill="#fe6c6c" stroke="#fd6c6c" stroke-width="1" font-size="30" font-family="MateSC-Regular, Mate SC"><tspan x="-190.44" y="0">Skinningrove.</tspan></text>
    </g>
    <g transform="matrix(1, 0, 0, 1, 0, 0)" filter="url(#population:_460.)">
      <text id="population:_460.-2" data-name="population: ~460." transform="translate(518 78)" fill="#fff" font-size="20" font-family="MateSC-Regular, Mate SC"><tspan x="-152.16" y="0">population: ~460.</tspan></text>
    </g>
    <g id="Rectangle_39" data-name="Rectangle 39" transform="translate(194.49 591.164) rotate(-178)" fill="rgba(255,255,255,0.82)" stroke="#fff" stroke-width="1">
      <rect width="16" height="10" stroke="none"/>
      <rect x="0.5" y="0.5" width="15" height="9" fill="none"/>
    </g>
    <g id="Rectangle_40" data-name="Rectangle 40" transform="translate(194.839 581.17) rotate(-178)" fill="rgba(255,255,255,0.82)" stroke="#fff" stroke-width="1">
      <rect width="16" height="10" stroke="none"/>
      <rect x="0.5" y="0.5" width="15" height="9" fill="none"/>
    </g>
    <g id="Rectangle_41" data-name="Rectangle 41" transform="translate(195.188 571.176) rotate(-178)" fill="rgba(255,255,255,0.82)" stroke="#fff" stroke-width="1">
      <rect width="16" height="10" stroke="none"/>
      <rect x="0.5" y="0.5" width="15" height="9" fill="none"/>
    </g>
    <g id="Rectangle_42" data-name="Rectangle 42" transform="translate(195.017 561.164) rotate(-178)" fill="rgba(255,255,255,0.82)" stroke="#fff" stroke-width="1">
      <rect width="15.479" height="10" stroke="none"/>
      <rect x="0.5" y="0.5" width="14.479" height="9" fill="none"/>
    </g>
    <g id="Rectangle_43" data-name="Rectangle 43" transform="translate(195.886 551.188) rotate(-178)" fill="rgba(255,255,255,0.82)" stroke="#fff" stroke-width="1">
      <rect width="16" height="10" stroke="none"/>
      <rect x="0.5" y="0.5" width="15" height="9" fill="none"/>
    </g>
    <g id="Rectangle_44" data-name="Rectangle 44" transform="translate(361.335 563.738) rotate(-43)" fill="rgba(255,255,255,0.82)" stroke="#fff" stroke-width="1">
      <rect width="16" height="10" stroke="none"/>
      <rect x="0.5" y="0.5" width="15" height="9" fill="none"/>
    </g>
    <g id="Rectangle_71" data-name="Rectangle 71" transform="translate(338.233 370.216) rotate(101)" fill="rgba(255,255,255,0.82)" stroke="#fff" stroke-width="1">
      <rect width="16" height="11.777" stroke="none"/>
      <rect x="0.5" y="0.5" width="15" height="10.777" fill="none"/>
    </g>
    <g id="Rectangle_71-2" data-name="Rectangle 71" transform="translate(326.454 367.926) rotate(101)" fill="rgba(255,255,255,0.82)" stroke="#fff" stroke-width="1">
      <rect width="16" height="11.777" stroke="none"/>
      <rect x="0.5" y="0.5" width="15" height="10.777" fill="none"/>
    </g>
    <g id="Rectangle_71-3" data-name="Rectangle 71" transform="translate(314.674 363.636) rotate(101)" fill="rgba(255,255,255,0.82)" stroke="#fff" stroke-width="1">
      <rect width="16" height="11.777" stroke="none"/>
      <rect x="0.5" y="0.5" width="15" height="10.777" fill="none"/>
    </g>
    <g id="Rectangle_75" data-name="Rectangle 75" transform="translate(394.755 359.686) rotate(79)" fill="rgba(255,255,255,0.82)" stroke="#fff" stroke-width="1">
      <rect width="16" height="11.777" stroke="none"/>
      <rect x="0.5" y="0.5" width="15" height="10.777" fill="none"/>
    </g>
    <g id="Rectangle_79" data-name="Rectangle 79" transform="translate(444.182 353.085) rotate(88)" fill="rgba(255,255,255,0.82)" stroke="#fff" stroke-width="1">
      <rect width="16" height="11.777" stroke="none"/>
      <rect x="0.5" y="0.5" width="15" height="10.777" fill="none"/>
    </g>
    <g id="Rectangle_71-4" data-name="Rectangle 71" transform="translate(302.275 361.065) rotate(97)" fill="rgba(255,255,255,0.82)" stroke="#fff" stroke-width="1">
      <rect width="16" height="11.777" stroke="none"/>
      <rect x="0.5" y="0.5" width="15" height="10.777" fill="none"/>
    </g>
    <g id="Rectangle_74" data-name="Rectangle 74" transform="matrix(0.259, 0.966, -0.966, 0.259, 382.295, 361.947)" fill="rgba(255,255,255,0.82)" stroke="#fff" stroke-width="1">
      <rect width="16" height="11.777" stroke="none"/>
      <rect x="0.5" y="0.5" width="15" height="10.777" fill="none"/>
    </g>
    <g id="Rectangle_78" data-name="Rectangle 78" transform="matrix(0.105, 0.995, -0.995, 0.105, 431.521, 355.368)" fill="rgba(255,255,255,0.82)" stroke="#fff" stroke-width="1">
      <rect width="16" height="11.777" stroke="none"/>
      <rect x="0.5" y="0.5" width="15" height="10.777" fill="none"/>
    </g>
    <g id="Rectangle_71-5" data-name="Rectangle 71" transform="translate(290.364 359.602) rotate(97)" fill="rgba(255,255,255,0.82)" stroke="#fff" stroke-width="1">
      <rect width="16" height="11.777" stroke="none"/>
      <rect x="0.5" y="0.5" width="15" height="10.777" fill="none"/>
    </g>
    <g id="Rectangle_73" data-name="Rectangle 73" transform="matrix(0.259, 0.966, -0.966, 0.259, 370.704, 365.052)" fill="rgba(255,255,255,0.82)" stroke="#fff" stroke-width="1">
      <rect width="16" height="11.777" stroke="none"/>
      <rect x="0.5" y="0.5" width="15" height="10.777" fill="none"/>
    </g>
    <g id="Rectangle_77" data-name="Rectangle 77" transform="matrix(0.105, 0.995, -0.995, 0.105, 419.587, 356.622)" fill="rgba(255,255,255,0.82)" stroke="#fff" stroke-width="1">
      <rect width="16" height="11.777" stroke="none"/>
      <rect x="0.5" y="0.5" width="15" height="10.777" fill="none"/>
    </g>
    <g id="Rectangle_71-6" data-name="Rectangle 71" transform="translate(278.454 358.14) rotate(97)" fill="rgba(255,255,255,0.82)" stroke="#fff" stroke-width="1">
      <rect width="16" height="11.777" stroke="none"/>
      <rect x="0.5" y="0.5" width="15" height="10.777" fill="none"/>
    </g>
    <g id="Rectangle_72" data-name="Rectangle 72" transform="matrix(0.259, 0.966, -0.966, 0.259, 359.113, 368.158)" fill="rgba(255,255,255,0.82)" stroke="#fff" stroke-width="1">
      <rect width="16" height="11.777" stroke="none"/>
      <rect x="0.5" y="0.5" width="15" height="10.777" fill="none"/>
    </g>
    <g id="Rectangle_76" data-name="Rectangle 76" transform="matrix(0.105, 0.995, -0.995, 0.105, 407.653, 357.877)" fill="rgba(255,255,255,0.82)" stroke="#fff" stroke-width="1">
      <rect width="16" height="11.777" stroke="none"/>
      <rect x="0.5" y="0.5" width="15" height="10.777" fill="none"/>
    </g>
    <g id="Rectangle_45" data-name="Rectangle 45" transform="translate(368.302 571.073) rotate(-43)" fill="rgba(255,255,255,0.82)" stroke="#fff" stroke-width="1">
      <rect width="16" height="10" stroke="none"/>
      <rect x="0.5" y="0.5" width="15" height="9" fill="none"/>
    </g>
    <g id="Rectangle_46" data-name="Rectangle 46" transform="translate(377.768 580.405) rotate(-51)" fill="rgba(255,255,255,0.82)" stroke="#fff" stroke-width="1">
      <rect width="16" height="10" stroke="none"/>
      <rect x="0.5" y="0.5" width="15" height="9" fill="none"/>
    </g>
    <g id="Rectangle_47" data-name="Rectangle 47" transform="translate(385.46 586.796) rotate(-51)" fill="rgba(255,255,255,0.82)" stroke="#fff" stroke-width="1">
      <rect width="16.126" height="10" stroke="none"/>
      <rect x="0.5" y="0.5" width="15.126" height="9" fill="none"/>
    </g>
    <g id="Rectangle_48" data-name="Rectangle 48" transform="translate(393.311 592.991) rotate(-51)" fill="rgba(255,255,255,0.82)" stroke="#fff" stroke-width="1">
      <rect width="16" height="10" stroke="none"/>
      <rect x="0.5" y="0.5" width="15" height="9" fill="none"/>
    </g>
    <g id="Path_23" data-name="Path 23" transform="matrix(0.602, -0.799, 0.799, 0.602, 402.007, 599.964)" fill="rgba(255,255,255,0.82)">
      <path d="M 15.3165397644043 9.500002861022949 L 0.5000007748603821 9.500002861022949 L 0.5000007748603821 0.478011429309845 L 15.29140377044678 -0.1873654425144196 L 15.3165397644043 9.500002861022949 Z" stroke="none"/>
      <path d="M 14.79275798797607 0.335576057434082 L 1.000000953674316 0.9560298919677734 L 1.000000953674316 9.000002861022949 L 14.81523895263672 9.000002861022949 L 14.79275798797607 0.335576057434082 M 15.7900505065918 -0.7102975845336914 L 15.81784057617188 10.00000286102295 L 9.5367431640625e-07 10.00000286102295 L 9.5367431640625e-07 2.86102294921875e-06 L 15.7900505065918 -0.7102975845336914 Z" stroke="none" fill="#fff"/>
    </g>
    <g id="Rectangle_50" data-name="Rectangle 50" transform="matrix(0.602, -0.799, 0.799, 0.602, 409.993, 605.982)" fill="rgba(255,255,255,0.82)" stroke="#fff" stroke-width="1">
      <rect width="16" height="10" stroke="none"/>
      <rect x="0.5" y="0.5" width="15" height="9" fill="none"/>
    </g>
    <g id="Rectangle_51" data-name="Rectangle 51" transform="translate(439.744 576.902) rotate(127)" fill="rgba(255,255,255,0.82)" stroke="#fff" stroke-width="1">
      <rect width="16" height="10" stroke="none"/>
      <rect x="0.5" y="0.5" width="15" height="9" fill="none"/>
    </g>
    <g id="Rectangle_52" data-name="Rectangle 52" transform="translate(431.444 571.3) rotate(127)" fill="rgba(255,255,255,0.82)" stroke="#fff" stroke-width="1">
      <rect width="15.479" height="10" stroke="none"/>
      <rect x="0.5" y="0.5" width="14.479" height="9" fill="none"/>
    </g>
    <g id="Rectangle_53" data-name="Rectangle 53" transform="translate(423.771 564.866) rotate(127)" fill="rgba(255,255,255,0.82)" stroke="#fff" stroke-width="1">
      <rect width="16" height="10" stroke="none"/>
      <rect x="0.5" y="0.5" width="15" height="9" fill="none"/>
    </g>
    <g id="Path_22" data-name="Path 22" transform="translate(381.951 549.998) rotate(-45)" fill="rgba(255,255,255,0.82)">
      <path d="M 15.53530788421631 9.5 L 0.543911874294281 9.5 L 1.369439601898193 -0.2939628660678864 L 16.1589183807373 0.9922927021980286 L 15.53530788421631 9.5 Z" stroke="none"/>
      <path d="M 1.825571060180664 0.2475948333740234 L 1.087836265563965 9 L 15.07061862945557 9 L 15.62419986724854 1.447675228118896 L 1.825571060180664 0.2475948333740234 M 0.9133167266845703 -0.8355197906494141 L 16.69363784790039 0.5369100570678711 L 15.99999713897705 10 L -3.814697265625e-06 10 L 0.9133167266845703 -0.8355197906494141 Z" stroke="none" fill="#fff"/>
    </g>
    <g id="Rectangle_54" data-name="Rectangle 54" transform="translate(389.022 557.069) rotate(-45)" fill="rgba(255,255,255,0.82)" stroke="#fff" stroke-width="1">
      <rect width="16" height="10" stroke="none"/>
      <rect x="0.5" y="0.5" width="15" height="9" fill="none"/>
    </g>
    <g id="Rectangle_55" data-name="Rectangle 55" transform="translate(396.093 564.14) rotate(-45)" fill="rgba(255,255,255,0.82)" stroke="#fff" stroke-width="1">
      <rect width="16" height="10" stroke="none"/>
      <rect x="0.5" y="0.5" width="15" height="9" fill="none"/>
    </g>
    <g transform="matrix(1, 0, 0, 1, 0, 0)" filter="url(#Ellipse_1)">
      <circle id="Ellipse_1-2" data-name="Ellipse 1" cx="8" cy="8" r="8" transform="translate(76 114)" fill="#ff6c6c"/>
    </g>
    <g id="Rectangle_56" data-name="Rectangle 56" fill="none" stroke="#fff" stroke-width="4">
      <rect width="548" height="678" stroke="none"/>
      <rect x="2" y="2" width="544" height="674" fill="none"/>
    </g>
    <g id="Rectangle_64" data-name="Rectangle 64" transform="translate(385.098 517.715) rotate(155)" fill="rgba(255,255,255,0.82)" stroke="#fff" stroke-width="1">
      <rect width="16" height="10" stroke="none"/>
      <rect x="0.5" y="0.5" width="15" height="9" fill="none"/>
    </g>
    <g id="Rectangle_65" data-name="Rectangle 65" transform="translate(380.872 508.652) rotate(155)" fill="rgba(255,255,255,0.82)" stroke="#fff" stroke-width="1">
      <rect width="16" height="10" stroke="none"/>
      <rect x="0.5" y="0.5" width="15" height="9" fill="none"/>
    </g>
    <g id="Rectangle_66" data-name="Rectangle 66" transform="translate(376.646 499.589) rotate(155)" fill="rgba(255,255,255,0.82)" stroke="#fff" stroke-width="1">
      <rect width="16" height="10" stroke="none"/>
      <rect x="0.5" y="0.5" width="15" height="9" fill="none"/>
    </g>
    <g id="Rectangle_67" data-name="Rectangle 67" transform="translate(371.948 490.746) rotate(155)" fill="rgba(255,255,255,0.82)" stroke="#fff" stroke-width="1">
      <rect width="15.479" height="10" stroke="none"/>
      <rect x="0.5" y="0.5" width="14.479" height="9" fill="none"/>
    </g>
    <g id="Rectangle_68" data-name="Rectangle 68" transform="translate(368.194 481.463) rotate(155)" fill="rgba(255,255,255,0.82)" stroke="#fff" stroke-width="1">
      <rect width="16" height="10" stroke="none"/>
      <rect x="0.5" y="0.5" width="15" height="9" fill="none"/>
    </g>
    <g id="Rectangle_69" data-name="Rectangle 69" transform="matrix(-0.891, 0.454, -0.454, -0.891, 363.434, 471.384)" fill="rgba(255,255,255,0.82)" stroke="#fff" stroke-width="1">
      <rect width="16" height="10" stroke="none"/>
      <rect x="0.5" y="0.5" width="15" height="9" fill="none"/>
    </g>
    <g id="Rectangle_70" data-name="Rectangle 70" transform="matrix(-0.891, 0.454, -0.454, -0.891, 358.894, 462.474)" fill="rgba(255,255,255,0.82)" stroke="#fff" stroke-width="1">
      <rect width="16" height="10" stroke="none"/>
      <rect x="0.5" y="0.5" width="15" height="9" fill="none"/>
    </g>
    <g transform="matrix(1, 0, 0, 1, 0, 0)" filter="url(#_1)">
      <text id="_1-2" data-name="1" transform="translate(156 275)" fill="#ff6c6c" stroke="#ff6c6c" stroke-linecap="round" stroke-linejoin="bevel" stroke-width="1" font-size="40" font-family="MateSC-Regular, Mate SC"><tspan x="0" y="0">1</tspan></text>
    </g>
    <g transform="matrix(1, 0, 0, 1, 0, 0)" filter="url(#_2)">
      <text id="_2-2" data-name="2" transform="translate(106 383)" fill="#ff6c6c" stroke="#ff6c6c" stroke-linecap="round" stroke-linejoin="bevel" stroke-width="1" font-size="40" font-family="MateSC-Regular, Mate SC"><tspan x="0" y="0">2</tspan></text>
    </g>
    <g transform="matrix(1, 0, 0, 1, 0, 0)" filter="url(#_3)">
      <text id="_3-2" data-name="3" transform="translate(154 464)" fill="#ff6c6c" stroke="#ff6c6c" stroke-linecap="round" stroke-linejoin="bevel" stroke-width="1" font-size="40" font-family="MateSC-Regular, Mate SC"><tspan x="0" y="0">3</tspan></text>
    </g>
    <g transform="matrix(1, 0, 0, 1, 0, 0)" filter="url(#_4)">
      <text id="_4-2" data-name="4" transform="translate(216 367)" fill="#ff6c6c" stroke="#ff6c6c" stroke-linecap="round" stroke-linejoin="bevel" stroke-width="1" font-size="40" font-family="MateSC-Regular, Mate SC"><tspan x="0" y="0">4</tspan></text>
    </g>
    <g transform="matrix(1, 0, 0, 1, 0, 0)" filter="url(#_5)">
      <text id="_5-2" data-name="5" transform="translate(142 573)" fill="#ff6c6c" stroke="#ff6c6c" stroke-linecap="round" stroke-linejoin="bevel" stroke-width="1" font-size="40" font-family="MateSC-Regular, Mate SC"><tspan x="0" y="0">5</tspan></text>
    </g>
    <g transform="matrix(1, 0, 0, 1, 0, 0)" filter="url(#_7)">
      <text id="_7-2" data-name="7" transform="translate(221 462)" fill="#ff6c6c" stroke="#ff6c6c" stroke-linecap="round" stroke-linejoin="bevel" stroke-width="1" font-size="40" font-family="MateSC-Regular, Mate SC"><tspan x="0" y="0">7</tspan></text>
    </g>
    <g transform="matrix(1, 0, 0, 1, 0, 0)" filter="url(#_9)">
      <text id="_9-2" data-name="9" transform="translate(381 433)" fill="#ff6c6c" stroke="#ff6c6c" stroke-linecap="round" stroke-linejoin="bevel" stroke-width="1" font-size="40" font-family="MateSC-Regular, Mate SC"><tspan x="0" y="0">9</tspan></text>
    </g>
    <g transform="matrix(1, 0, 0, 1, 0, 0)" filter="url(#_10)">
      <text id="_10-2" data-name="10" transform="translate(278 596)" fill="#ff6c6c" stroke="#ff6c6c" stroke-linecap="round" stroke-linejoin="bevel" stroke-width="1" font-size="40" font-family="MateSC-Regular, Mate SC"><tspan x="0" y="0">10</tspan></text>
    </g>
    <g transform="matrix(1, 0, 0, 1, 0, 0)" filter="url(#_11)">
      <text id="_11-2" data-name="11" transform="translate(92 500)" fill="#ff6c6c" stroke="#ff6c6c" stroke-linecap="round" stroke-linejoin="bevel" stroke-width="1" font-size="40" font-family="MateSC-Regular, Mate SC"><tspan x="0" y="0">11</tspan></text>
    </g>
    <g transform="matrix(1, 0, 0, 1, 0, 0)" filter="url(#_8)">
      <text id="_8-2" data-name="8" transform="translate(280 402)" fill="#ff6c6c" stroke="#ff6c6c" stroke-linecap="round" stroke-linejoin="bevel" stroke-width="1" font-size="40" font-family="MateSC-Regular, Mate SC"><tspan x="0" y="0">8</tspan></text>
    </g>
    <g transform="matrix(1, 0, 0, 1, 0, 0)" filter="url(#_12)">
      <text id="_12-2" data-name="12" transform="translate(423 589)" fill="#ff6c6c" stroke="#ff6c6c" stroke-linecap="round" stroke-linejoin="bevel" stroke-width="1" font-size="40" font-family="MateSC-Regular, Mate SC"><tspan x="0" y="0">12</tspan></text>
    </g>
  </g>
</svg>
